<svg xmlns="http://www.w3.org/2000/svg" viewBox="0 0 123.12 68.05"><title>compland</title><g id="Layer_2" data-name="Layer 2"><g id="Layer_1-2" data-name="Layer 1"><path d="M13.05,47.16a7.48,7.48,0,0,1,2.63,4.41H11.52A3.84,3.84,0,0,0,10.1,49.8a3.92,3.92,0,0,0-2.26-.64,3.44,3.44,0,0,0-2.78,1.26,5.9,5.9,0,0,0,0,6.75,3.46,3.46,0,0,0,2.78,1.25A3.81,3.81,0,0,0,11.52,56h4.16a7.52,7.52,0,0,1-2.63,4.4,7.9,7.9,0,0,1-5.14,1.64,8.06,8.06,0,0,1-4.16-1A7.06,7.06,0,0,1,1,58.1a9.92,9.92,0,0,1,0-8.6,7.06,7.06,0,0,1,2.77-2.93,8.06,8.06,0,0,1,4.16-1A8,8,0,0,1,13.05,47.16Z"/><path d="M27.3,49.74A5.87,5.87,0,0,1,29.67,52a7.53,7.53,0,0,1,0,7A5.84,5.84,0,0,1,27.3,61.3a7.71,7.71,0,0,1-6.84,0A5.75,5.75,0,0,1,18.08,59a7.53,7.53,0,0,1,0-7,5.77,5.77,0,0,1,2.38-2.29A7.25,7.25,0,0,1,23.88,49,7.22,7.22,0,0,1,27.3,49.74ZM22,53.17a4,4,0,0,0,0,4.7,2.63,2.63,0,0,0,3.78,0,4,4,0,0,0,0-4.7,2.59,2.59,0,0,0-3.78,0Z"/><path d="M52.92,50.43a5.77,5.77,0,0,1,1.35,4.06v7.45h-3.9V55a2.61,2.61,0,0,0-.66-1.9,2.37,2.37,0,0,0-1.78-.68,2.42,2.42,0,0,0-1.85.73,2.86,2.86,0,0,0-.68,2v6.81H41.47V55a2.65,2.65,0,0,0-.64-1.9,2.34,2.34,0,0,0-1.77-.68,2.48,2.48,0,0,0-1.87.72,2.8,2.8,0,0,0-.69,2v6.81H32.57V49.11H36.5v2.18a3.88,3.88,0,0,1,1.56-1.7A4.71,4.71,0,0,1,40.5,49a4.94,4.94,0,0,1,2.6.68,4.24,4.24,0,0,1,1.7,1.94,5.32,5.32,0,0,1,1.83-1.91,5.28,5.28,0,0,1,6.29.75Z"/><path d="M67.73,49.74a5.4,5.4,0,0,1,2,2.28,8.87,8.87,0,0,1,0,7,5.35,5.35,0,0,1-2,2.28,5.17,5.17,0,0,1-2.84.8,4.56,4.56,0,0,1-2.52-.67,3.83,3.83,0,0,1-1.54-1.81v8.43H56.89V49.11h3.94v2.32a3.83,3.83,0,0,1,1.54-1.81A4.56,4.56,0,0,1,64.89,49,5.17,5.17,0,0,1,67.73,49.74Zm-6.13,3.5a3.18,3.18,0,0,0-.8,2.28,3.22,3.22,0,0,0,.8,2.28,2.87,2.87,0,0,0,4.06,0,3.82,3.82,0,0,0,0-4.6,2.9,2.9,0,0,0-4.06,0Z"/><path d="M76.41,44.93v17H72.48v-17Z"/><path d="M86.53,49.62a4,4,0,0,1,1.56,1.81V49.11H92V61.94H88.09V59.62a4,4,0,0,1-1.56,1.81A4.62,4.62,0,0,1,84,62.1a5.17,5.17,0,0,1-2.84-.8,5.35,5.35,0,0,1-2-2.28,8.87,8.87,0,0,1,0-7,5.4,5.4,0,0,1,2-2.28A5.17,5.17,0,0,1,84,49,4.62,4.62,0,0,1,86.53,49.62Zm-3.3,3.6a3.82,3.82,0,0,0,0,4.6,2.87,2.87,0,0,0,4.06,0,3.22,3.22,0,0,0,.8-2.28,3.18,3.18,0,0,0-.8-2.28,2.9,2.9,0,0,0-4.06,0Z"/><path d="M106.35,50.44a5.88,5.88,0,0,1,1.3,4.05v7.45h-3.93V55a2.83,2.83,0,0,0-.68-2,2.32,2.32,0,0,0-1.8-.73,2.48,2.48,0,0,0-1.9.76,3.07,3.07,0,0,0-.7,2.16v6.81H94.71V49.11h3.93v2.34a4.28,4.28,0,0,1,1.64-1.81,4.8,4.8,0,0,1,2.57-.67A4.42,4.42,0,0,1,106.35,50.44Z"/><path d="M117.65,49.62a3.83,3.83,0,0,1,1.54,1.81v-6.5h3.93v17h-3.93V59.62a3.83,3.83,0,0,1-1.54,1.81,4.59,4.59,0,0,1-2.53.67,5.2,5.2,0,0,1-2.84-.8,5.39,5.39,0,0,1-2-2.28,8.76,8.76,0,0,1,0-7,5.45,5.45,0,0,1,2-2.28,5.19,5.19,0,0,1,2.84-.79A4.59,4.59,0,0,1,117.65,49.62Zm-3.3,3.6a3.82,3.82,0,0,0,0,4.6,2.89,2.89,0,0,0,4.07,0,3.21,3.21,0,0,0,.79-2.28,3.18,3.18,0,0,0-.79-2.28,2.91,2.91,0,0,0-4.07,0Z"/><polygon points="53.72 0 53.72 10.77 69.88 10.77 69.88 26.93 53.72 26.93 53.72 10.77 42.95 10.77 42.95 37.7 80.65 37.7 80.65 0 53.72 0"/></g></g></svg>