<svg xmlns="http://www.w3.org/2000/svg" viewBox="0 0 99.93 49.51"><title>Hub</title><g id="Layer_2" data-name="Layer 2"><g id="Layer_1-2" data-name="Layer 1"><path d="M56,47.31V35.88H51.21V47.31H45.72V22.19h5.49V32.73H56V22.19h5.48V47.31Z"/><path d="M80.71,40.67c0,4.19-2.26,6.83-7.33,6.83H72.23c-5.06,0-7.32-2.64-7.32-6.83V22.19h5.52V40.67c0,2.88.65,3.69,2.42,3.69,1.53,0,2.38-.81,2.38-3.69V22.19h5.48Z"/><path d="M92.57,47.31h-8.4V22.19h8.4c5.18,0,7.21,2.6,7.21,6.75,0,1.76-.08,5.18-3.65,5.52,3.73.27,3.8,4.1,3.8,6.06C99.93,44.78,97.75,47.35,92.57,47.31Zm1.57-19.45c0-2-.69-2.61-2.34-2.61H89.58v7.56h2.34c1.49,0,2.22-.73,2.22-2.72Zm.15,10.78c0-1.84-.69-2.72-2.34-2.72H89.58V44.2h2.11c2.07,0,2.6-.57,2.6-3.33Z"/><rect x="5.38" y="18.93" width="24.87" height="25.53" transform="translate(-17.19 21.88) rotate(-45)"/><rect x="23.88" y="3.14" width="15.44" height="15.85" transform="translate(1.43 25.59) rotate(-45)"/></g></g></svg>