<svg xmlns="http://www.w3.org/2000/svg" viewBox="0 0 120.9 33.6"><title>Port2</title><g id="Layer_2" data-name="Layer 2"><g id="Layer_1-2" data-name="Layer 1"><path d="M61.78,16.33c0,4.72-2.07,6.83-7.48,6.83H51.77v8.75H46.32V6.78h8.13c5.06,0,7.33,2.61,7.33,6.79Zm-5.37-2.76c0-2.87-.73-3.68-2.3-3.68H51.77V20.06h2.34c1.61,0,2.3-.77,2.3-3.73Z"/><path d="M78,25.35c0,4.33-2,6.87-6.55,6.83h-1c-4.57,0-6.6-2.53-6.6-6.83V18.14c0-4.26,2.07-6.87,6.6-6.87h1C76,11.27,78,13.88,78,18.14Zm-4.91-7.21c0-2.92-.8-3.76-2.22-3.76s-2.23.84-2.23,3.76v7.21c0,2.95.77,3.72,2.23,3.72,1.61,0,2.22-.73,2.22-3.72Z"/><path d="M93.54,19.25H89.78c.16-4-.8-4.64-2.37-4.64H85.87v17.3H81.12v-20l7-.8c3.56,0,6.25,2.61,5.75,6Z"/><path d="M103,32.25c-4.84,0-6.76-2.14-6.76-6.82V11.62c2-.12,2.27-.89,2.3-3.53H101V11.5h4.83v2.57l-4.83.61V25.43c0,2.87.5,3.68,2,3.68h2.84v2.68Z"/><path d="M120.52,16.3l-7.25,12.5h7.48v3.11H107.4V28.53L115.11,15c.27-3.3-1-5.14-2.84-5.14h-4.68V7L113,6.48c6.33,0,7.94,3.53,7.94,6.36A20.77,20.77,0,0,1,120.52,16.3Z"/><polygon points="29.1 0 9.7 0 0 16.8 9.7 33.6 29.1 33.6 38.8 16.8 29.1 0"/></g></g></svg>